<?xml version="1.0" encoding="utf-8"?>
<!-- Generator: Adobe Illustrator 23.0.6, SVG Export Plug-In . SVG Version: 6.00 Build 0)  -->
<svg version="1.1" xmlns="http://www.w3.org/2000/svg" xmlns:xlink="http://www.w3.org/1999/xlink" x="0px" y="0px"
	 viewBox="0 0 119.95 72" style="enable-background:new 0 0 119.95 72;" xml:space="preserve">
<style type="text/css">
	.st0{clip-path:url(#SVGID_2_);}
	.st1{clip-path:url(#SVGID_4_);fill:#FFFFFF;}
	.st2{clip-path:url(#SVGID_4_);fill:none;stroke:#FFFFFF;stroke-width:0.25;stroke-miterlimit:10;}
	.st3{clip-path:url(#SVGID_6_);}
	.st4{clip-path:url(#SVGID_8_);fill:none;stroke:#BD202E;stroke-width:0.5;stroke-miterlimit:10;}
	.st5{clip-path:url(#SVGID_6_);fill:none;stroke:#BD202E;stroke-width:0.5;stroke-miterlimit:10;}
	.st6{clip-path:url(#SVGID_10_);fill:none;stroke:#BD202E;stroke-width:0.5;stroke-miterlimit:10;}
	.st7{clip-path:url(#SVGID_12_);fill:none;stroke:#BD202E;stroke-width:0.5;stroke-miterlimit:10;}
	.st8{clip-path:url(#SVGID_14_);fill:none;stroke:#BD202E;stroke-width:0.5;stroke-miterlimit:10;}
	.st9{clip-path:url(#SVGID_16_);fill:none;stroke:#BD202E;stroke-width:0.5;stroke-miterlimit:10;}
</style>
<g id="Layer_1">
	<rect y="0" width="119.95" height="72"/>
</g>
<g id="Layer_2">
	<g id="F1_hk_1_">
		<g>
			<defs>
				<rect id="SVGID_1_" x="22.99" y="11.29" width="37.54" height="37.67"/>
			</defs>
			<clipPath id="SVGID_2_">
				<use xlink:href="#SVGID_1_"  style="overflow:visible;"/>
			</clipPath>
			<g class="st0">
				<defs>
					<rect id="SVGID_3_" x="22.99" y="11.29" width="37.54" height="37.67"/>
				</defs>
				<clipPath id="SVGID_4_">
					<use xlink:href="#SVGID_3_"  style="overflow:visible;"/>
				</clipPath>
				<path class="st1" d="M44.97,11.42c0,0-10.67,0.2-11,10.56c0.29,3.57,2.56,6.69,5.87,8.06c-1.35-2.1-0.74-4.9,1.36-6.25
					c0.2-0.13,0.42-0.25,0.64-0.34c0,0,4.55-2.49,1.72-7.51C43.62,15.9,41.92,13.68,44.97,11.42"/>
				<path class="st2" d="M44.97,11.42c0,0-10.67,0.2-11,10.56c0.29,3.57,2.56,6.69,5.87,8.06c-1.35-2.1-0.74-4.9,1.36-6.25
					c0.2-0.13,0.42-0.25,0.64-0.34c0,0,4.55-2.49,1.72-7.51C43.62,15.9,41.92,13.68,44.97,11.42z"/>
				<path class="st1" d="M38.66,20.23c0,0-3.85,4.88,1.2,9.77"/>
				<path class="st2" d="M38.66,20.23c0,0-3.85,4.88,1.2,9.77"/>
				<path class="st1" d="M60.29,28.79c0,0-3.49-10.08-13.43-7.17c-3.31,1.37-5.58,4.49-5.85,8.07c1.58-1.93,4.42-2.21,6.35-0.63
					c0.2,0.16,0.38,0.34,0.54,0.53c0,0,3.77,3.56,7.68-0.69C55.58,28.9,57.16,26.6,60.29,28.79"/>
				<path class="st2" d="M60.29,28.79c0,0-3.49-10.08-13.43-7.17c-3.31,1.37-5.58,4.49-5.85,8.07c1.58-1.93,4.42-2.21,6.35-0.63
					c0.2,0.16,0.38,0.34,0.54,0.53c0,0,3.77,3.56,7.68-0.69C55.58,28.9,57.16,26.6,60.29,28.79z"/>
				<path class="st1" d="M49.92,25.52c0,0-5.83-2.1-8.91,4.17"/>
				<path class="st2" d="M49.92,25.52c0,0-5.83-2.1-8.91,4.17"/>
				<path class="st1" d="M48.36,48.63c0,0,8.51-6.44,2.67-15c-2.34-2.72-6-3.91-9.49-3.06c2.32,0.9,3.47,3.52,2.56,5.84
					c-0.09,0.24-0.2,0.46-0.33,0.68c0,0-2.22,4.69,3,7.09C46.79,44.18,49.47,44.98,48.36,48.63"/>
				<path class="st2" d="M48.36,48.63c0,0,8.51-6.44,2.67-15c-2.34-2.72-6-3.91-9.49-3.06c2.32,0.9,3.47,3.52,2.56,5.84
					c-0.09,0.24-0.2,0.46-0.33,0.68c0,0-2.22,4.69,3,7.09C46.79,44.18,49.47,44.98,48.36,48.63z"/>
				<path class="st1" d="M48.24,37.76c0,0,0.24-6.21-6.72-7.19"/>
				<path class="st2" d="M48.24,37.76c0,0,0.24-6.21-6.72-7.19"/>
				<path class="st1" d="M25.98,43.76c0,0,8.74,6.11,15.08-2.09c1.88-3.07,1.88-6.93,0-10c-0.15,2.49-2.28,4.38-4.77,4.24
					c-0.25-0.02-0.51-0.05-0.75-0.11c0,0-5.14-0.66-5.81,5.07C29.72,40.9,29.79,43.69,25.98,43.76"/>
				<path class="st2" d="M25.98,43.76c0,0,8.74,6.11,15.08-2.09c1.88-3.07,1.88-6.93,0-10c-0.15,2.49-2.28,4.38-4.77,4.24
					c-0.25-0.02-0.51-0.05-0.75-0.11c0,0-5.14-0.66-5.81,5.07C29.72,40.9,29.79,43.69,25.98,43.76z"/>
				<path class="st1" d="M36.24,40.31c0,0,6-1.69,4.77-8.61"/>
				<path class="st2" d="M36.24,40.31c0,0,6-1.69,4.77-8.61"/>
				<path class="st1" d="M23.73,20.3c0,0-3.49,10.12,6.17,13.92c3.47,0.95,7.17-0.13,9.58-2.8c-2.44,0.55-4.85-0.99-5.4-3.42
					c-0.05-0.24-0.09-0.49-0.1-0.74c0,0-0.77-5.13-6.47-4.19C27.51,23.11,24.85,23.95,23.73,20.3"/>
				<path class="st2" d="M23.73,20.3c0,0-3.49,10.12,6.17,13.92c3.47,0.95,7.17-0.13,9.58-2.8c-2.44,0.55-4.85-0.99-5.4-3.42
					c-0.05-0.24-0.09-0.49-0.1-0.74c0,0-0.77-5.13-6.47-4.19C27.51,23.11,24.85,23.95,23.73,20.3z"/>
				<path class="st1" d="M29.89,29.26c0,0,3.27,5.28,9.59,2.2"/>
				<path class="st2" d="M29.89,29.26c0,0,3.27,5.28,9.59,2.2"/>
			</g>
		</g>
	</g>
</g>
<g id="Layer_3">
	<g id="F1_bridge_1_">
		<g>
			<defs>
				<rect id="SVGID_5_" x="34.52" y="23.16" width="62.44" height="37.55"/>
			</defs>
			<clipPath id="SVGID_6_">
				<use xlink:href="#SVGID_5_"  style="overflow:visible;"/>
			</clipPath>
			<g class="st3">
				<defs>
					<rect id="SVGID_7_" x="34.52" y="23.16" width="62.44" height="37.55"/>
				</defs>
				<clipPath id="SVGID_8_">
					<use xlink:href="#SVGID_7_"  style="overflow:visible;"/>
				</clipPath>
				<path class="st4" d="M62.22,25.37L34.64,41.46L62.22,25.37z"/>
				<polyline class="st4" points="59.8,60.71 59.8,44.26 60.54,43.21 60.78,29.97 59.8,29.97 59.8,26.8 62.22,25.37 96.36,48.98 
									"/>
			</g>
			<polyline class="st5" points="68.45,58.24 68.45,44.17 69.04,42.73 69.04,26.16 71.45,24.81 73.86,26.51 89.26,37.43 			"/>
			<g class="st3">
				<defs>
					<rect id="SVGID_9_" x="34.52" y="23.16" width="62.44" height="37.55"/>
				</defs>
				<clipPath id="SVGID_10_">
					<use xlink:href="#SVGID_9_"  style="overflow:visible;"/>
				</clipPath>
				<polyline class="st6" points="73.86,26.51 73.86,29.26 73.86,43.54 74.69,44.66 74.81,60.71 				"/>
			</g>
			<polygon class="st5" points="62.22,28.4 69.04,27.61 69.04,32.62 63.79,33.18 62.22,33.34 			"/>
			<polygon class="st5" points="64.55,44.66 64.56,43.56 64.69,33.08 62.84,33.34 62.84,43.04 62.84,44.66 63.49,44.66 63.97,44.66 
							"/>
			<rect x="62.22" y="44.66" class="st5" width="6.23" height="4.9"/>
			<polyline class="st5" points="61.93,59.01 61.75,52.3 62.22,51.7 62.22,49.22 			"/>
			<g class="st3">
				<defs>
					<rect id="SVGID_11_" x="34.52" y="23.16" width="62.44" height="37.55"/>
				</defs>
				<clipPath id="SVGID_12_">
					<use xlink:href="#SVGID_11_"  style="overflow:visible;"/>
				</clipPath>
				<polyline class="st7" points="72.02,42.73 71.45,43.61 71.73,52.4 70.84,53.22 70.84,60.71 				"/>
			</g>
			<line class="st5" x1="52.39" y1="31.17" x2="52.39" y2="50.97"/>
			<line class="st5" x1="45.35" y1="53.45" x2="45.35" y2="35.33"/>
			<line class="st5" x1="37.65" y1="39.87" x2="37.65" y2="56.21"/>
			<line class="st5" x1="81.56" y1="31.97" x2="81.56" y2="49.98"/>
			<g class="st3">
				<defs>
					<rect id="SVGID_13_" x="34.52" y="23.16" width="62.44" height="37.55"/>
				</defs>
				<clipPath id="SVGID_14_">
					<use xlink:href="#SVGID_13_"  style="overflow:visible;"/>
				</clipPath>
				<line class="st8" x1="89.26" y1="37.43" x2="96.82" y2="42.33"/>
			</g>
			<line class="st5" x1="62.22" y1="24.1" x2="62.22" y2="25.37"/>
			<g class="st3">
				<defs>
					<rect id="SVGID_15_" x="34.52" y="23.16" width="62.44" height="37.55"/>
				</defs>
				<clipPath id="SVGID_16_">
					<use xlink:href="#SVGID_15_"  style="overflow:visible;"/>
				</clipPath>
				<line class="st9" x1="71.45" y1="23.16" x2="71.45" y2="24.81"/>
			</g>
			<line class="st5" x1="89.26" y1="57.65" x2="89.26" y2="37.58"/>
		</g>
	</g>
</g>
</svg>
