<svg id="Layer_2" data-name="Layer 2" xmlns="http://www.w3.org/2000/svg" xmlns:xlink="http://www.w3.org/1999/xlink" viewBox="0 0 37.54 37.67"><defs><style>.cls-1,.cls-4{fill:none;}.cls-2{clip-path:url(#clip-path);}.cls-3{fill:#fff;}.cls-4{stroke:#fff;stroke-miterlimit:10;stroke-width:0.25px;}</style><clipPath id="clip-path" transform="translate(-41.2 -17.16)"><rect class="cls-1" x="41.2" y="17.16" width="37.54" height="37.67"/></clipPath></defs><title>hk</title><g id="F1_hk" data-name="F1 hk"><g class="cls-2"><g class="cls-2"><path class="cls-3" d="M63.18,17.3s-10.67.2-11,10.56a9.58,9.58,0,0,0,5.87,8.06,4.52,4.52,0,0,1,1.36-6.25,4.38,4.38,0,0,1,.64-.34s4.55-2.49,1.72-7.51c.06,0-1.64-2.26,1.41-4.52" transform="translate(-41.2 -17.16)"/><path class="cls-4" d="M63.18,17.3s-10.67.2-11,10.56a9.58,9.58,0,0,0,5.87,8.06,4.52,4.52,0,0,1,1.36-6.25,4.38,4.38,0,0,1,.64-.34s4.55-2.49,1.72-7.51C61.83,21.78,60.13,19.56,63.18,17.3Z" transform="translate(-41.2 -17.16)"/><path class="cls-3" d="M56.87,26.11S53,31,58.07,35.88" transform="translate(-41.2 -17.16)"/><path class="cls-4" d="M56.87,26.11S53,31,58.07,35.88" transform="translate(-41.2 -17.16)"/><path class="cls-3" d="M78.5,34.67S75,24.59,65.07,27.5a9.53,9.53,0,0,0-5.85,8.07,4.51,4.51,0,0,1,6.35-.63,3.38,3.38,0,0,1,.54.53s3.77,3.56,7.68-.69c0,0,1.58-2.3,4.71-.11" transform="translate(-41.2 -17.16)"/><path class="cls-4" d="M78.5,34.67S75,24.59,65.07,27.5a9.53,9.53,0,0,0-5.85,8.07,4.51,4.51,0,0,1,6.35-.63,3.38,3.38,0,0,1,.54.53s3.77,3.56,7.68-.69C73.79,34.78,75.37,32.48,78.5,34.67Z" transform="translate(-41.2 -17.16)"/><path class="cls-3" d="M68.13,31.4s-5.83-2.1-8.91,4.17" transform="translate(-41.2 -17.16)"/><path class="cls-4" d="M68.13,31.4s-5.83-2.1-8.91,4.17" transform="translate(-41.2 -17.16)"/><path class="cls-3" d="M66.57,54.51s8.51-6.44,2.67-15a9.51,9.51,0,0,0-9.49-3.06,4.52,4.52,0,0,1,2.57,5.84A6.16,6.16,0,0,1,62,43s-2.22,4.69,3,7.09c0,0,2.7.8,1.59,4.45" transform="translate(-41.2 -17.16)"/><path class="cls-4" d="M66.57,54.51s8.51-6.44,2.67-15a9.51,9.51,0,0,0-9.49-3.06,4.52,4.52,0,0,1,2.57,5.84A6.16,6.16,0,0,1,62,43s-2.22,4.69,3,7.09C65,50.06,67.68,50.86,66.57,54.51Z" transform="translate(-41.2 -17.16)"/><path class="cls-3" d="M66.45,43.63s.24-6.21-6.72-7.19" transform="translate(-41.2 -17.16)"/><path class="cls-4" d="M66.45,43.63s.24-6.21-6.72-7.19" transform="translate(-41.2 -17.16)"/><path class="cls-3" d="M44.19,49.63s8.74,6.11,15.08-2.09a9.53,9.53,0,0,0,0-10,4.5,4.5,0,0,1-4.76,4.24,3.87,3.87,0,0,1-.76-.11s-5.14-.66-5.81,5.07c0,0,.06,2.82-3.75,2.89" transform="translate(-41.2 -17.16)"/><path class="cls-4" d="M44.19,49.63s8.74,6.11,15.08-2.09a9.53,9.53,0,0,0,0-10,4.5,4.5,0,0,1-4.76,4.24,3.87,3.87,0,0,1-.76-.11s-5.14-.66-5.81,5.07C47.93,46.77,48,49.56,44.19,49.63Z" transform="translate(-41.2 -17.16)"/><path class="cls-3" d="M54.45,46.19s6-1.69,4.77-8.61" transform="translate(-41.2 -17.16)"/><path class="cls-4" d="M54.45,46.19s6-1.69,4.77-8.61" transform="translate(-41.2 -17.16)"/><path class="cls-3" d="M41.94,26.17s-3.49,10.12,6.17,13.92a9.51,9.51,0,0,0,9.58-2.8,4.5,4.5,0,0,1-5.39-3.42,4.55,4.55,0,0,1-.11-.74s-.77-5.13-6.47-4.19c0,0-2.66.88-3.78-2.77" transform="translate(-41.2 -17.16)"/><path class="cls-4" d="M41.94,26.17s-3.49,10.12,6.17,13.92a9.51,9.51,0,0,0,9.58-2.8,4.5,4.5,0,0,1-5.39-3.42,4.55,4.55,0,0,1-.11-.74s-.77-5.13-6.47-4.19C45.72,29,43.06,29.82,41.94,26.17Z" transform="translate(-41.2 -17.16)"/><path class="cls-3" d="M48.1,35.13s3.27,5.28,9.59,2.2" transform="translate(-41.2 -17.16)"/><path class="cls-4" d="M48.1,35.13s3.27,5.28,9.59,2.2" transform="translate(-41.2 -17.16)"/></g></g></g></svg>