<svg id="Layer_3" data-name="Layer 3" xmlns="http://www.w3.org/2000/svg" xmlns:xlink="http://www.w3.org/1999/xlink" viewBox="0 0 62.44 37.55"><defs><style>.cls-1,.cls-3{fill:none;}.cls-2{clip-path:url(#clip-path);}.cls-3{stroke:#bd202e;stroke-miterlimit:10;stroke-width:0.5px;}</style><clipPath id="clip-path" transform="translate(-28.75 -97.31)"><rect class="cls-1" x="28.76" y="97.31" width="62.44" height="37.55"/></clipPath></defs><title>sf</title><g id="F1_bridge" data-name="F1 bridge"><g class="cls-2"><g class="cls-2"><path class="cls-3" d="M56.46,99.52,28.88,115.61Z" transform="translate(-28.75 -97.31)"/><polyline class="cls-3" points="25.29 37.55 25.29 21.1 26.03 20.05 26.27 6.81 25.29 6.81 25.29 3.64 27.71 2.21 61.85 25.82"/></g><polyline class="cls-3" points="33.94 35.08 33.94 21.01 34.53 19.57 34.53 3 36.94 1.65 39.35 3.35 54.75 14.27"/><g class="cls-2"><polyline class="cls-3" points="39.35 3.35 39.35 6.1 39.35 20.38 40.18 21.5 40.3 37.55"/></g><polygon class="cls-3" points="27.71 5.24 34.53 4.45 34.53 9.46 29.28 10.02 27.71 10.18 27.71 5.24"/><polygon class="cls-3" points="30.04 21.5 30.05 20.4 30.18 9.92 28.33 10.18 28.33 19.88 28.33 21.5 28.98 21.5 29.46 21.5 30.04 21.5"/><rect class="cls-3" x="27.71" y="21.5" width="6.23" height="4.9"/><polyline class="cls-3" points="27.42 35.85 27.24 29.14 27.71 28.54 27.71 26.06"/><g class="cls-2"><polyline class="cls-3" points="37.51 19.57 36.94 20.45 37.22 29.24 36.33 30.06 36.33 37.55"/></g><line class="cls-3" x1="17.88" y1="8.01" x2="17.88" y2="27.81"/><line class="cls-3" x1="10.84" y1="30.29" x2="10.84" y2="12.17"/><line class="cls-3" x1="3.14" y1="16.71" x2="3.14" y2="33.05"/><line class="cls-3" x1="47.05" y1="8.81" x2="47.05" y2="26.82"/><g class="cls-2"><line class="cls-3" x1="54.75" y1="14.27" x2="62.31" y2="19.17"/></g><line class="cls-3" x1="27.71" y1="0.94" x2="27.71" y2="2.21"/><g class="cls-2"><line class="cls-3" x1="36.94" x2="36.94" y2="1.65"/></g><line class="cls-3" x1="54.75" y1="34.49" x2="54.75" y2="14.42"/></g></g></svg>